<?xml version="1.0" encoding="UTF-8"?>
<!-- Uploaded to: SVG Find, www.svgrepo.com, Generator: SVG Find Mixer Tools -->
<svg fill="#000000" width="800px" height="800px" version="1.1" viewBox="144 144 512 512" xmlns="http://www.w3.org/2000/svg">
 <g>
  <path d="m297.07 356.07h-60.91c-5.2383 0-10.078-2.793-12.695-7.332-2.6211-4.5352-2.6211-10.125 0-14.66 2.6172-4.5352 7.457-7.3281 12.695-7.3281h60.91c5.2383 0 10.078 2.793 12.695 7.3281 2.6211 4.5352 2.6211 10.125 0 14.66-2.6172 4.5391-7.457 7.332-12.695 7.332z"/>
  <path d="m450.38 356.07h-104.09c-5.2383 0-10.078-2.793-12.695-7.332-2.6211-4.5352-2.6211-10.125 0-14.66 2.6172-4.5352 7.457-7.3281 12.695-7.3281h104.09c45.344 0 45.344-21.914 45.344-30.23 0-10.801-5.7617-20.777-15.113-26.18-9.3555-5.3984-20.879-5.3984-30.23 0-9.3516 5.4023-15.113 15.379-15.113 26.18 0 5.2383-2.793 10.078-7.332 12.695-4.5352 2.6211-10.125 2.6211-14.66 0-4.5352-2.6172-7.3281-7.457-7.3281-12.695 0-21.273 11.348-40.934 29.773-51.57 18.426-10.641 41.125-10.641 59.551 0 18.426 10.637 29.773 30.297 29.773 51.57-0.050781 17.836-7.3555 59.551-74.664 59.551z"/>
  <path d="m536.03 530.99c-19.555-0.027343-38.293-7.8242-52.09-21.68-13.797-13.855-21.52-32.625-21.465-52.18 0-5.2344 2.793-10.074 7.3281-12.695 4.5352-2.6172 10.125-2.6172 14.66 0 4.5391 2.6211 7.332 7.4609 7.332 12.695-0.40625 12 4.0781 23.648 12.422 32.277s19.832 13.504 31.836 13.504c12.004 0 23.496-4.875 31.84-13.504s12.824-20.277 12.422-32.277c0-36.578-32.395-44.234-59.551-44.234h-319.01c-5.2383 0-10.078-2.793-12.695-7.3281-2.6211-4.5352-2.6211-10.125 0-14.66 2.6172-4.5391 7.457-7.332 12.695-7.332h319.16c42.926 0 88.871 19.348 88.871 73.555 0.054688 19.59-7.6953 38.391-21.539 52.25-13.84 13.859-32.633 21.637-52.219 21.609z"/>
  <path d="m266.59 472.95h-52.395c-5.2383 0-10.078-2.793-12.699-7.3281-2.6172-4.5391-2.6172-10.125 0-14.664 2.6211-4.5352 7.4609-7.3281 12.699-7.3281h52.395c5.2383 0 10.078 2.793 12.695 7.3281 2.6211 4.5391 2.6211 10.125 0 14.664-2.6172 4.5352-7.457 7.3281-12.695 7.3281z"/>
  <path d="m386.85 547.26c-18.578-0.042969-35.727-9.9922-44.988-26.098-1.8711-4.4258-1.4531-9.4883 1.1172-13.551 2.5703-4.0586 6.9688-6.6016 11.773-6.8047 4.8008-0.19922 9.3984 1.9648 12.301 5.7969 3.3086 5.7852 9.0156 9.8086 15.578 10.984 6.5625 1.1758 13.309-0.61719 18.422-4.8984 5.1133-4.2773 8.0664-10.605 8.0664-17.27 0-12.043 0-22.469-36.324-22.469l-53.809-0.003906c-5.2344 0-10.078-2.793-12.695-7.3281-2.6172-4.5391-2.6172-10.125 0-14.664 2.6172-4.5352 7.4609-7.3281 12.695-7.3281h54.059c44.789 0 65.496 16.473 65.496 51.793 0 13.723-5.4414 26.883-15.129 36.602-9.6914 9.7188-22.84 15.199-36.562 15.238z"/>
 </g>
</svg>