<?xml version="1.0" encoding="UTF-8"?>
<!-- Uploaded to: SVG Find, www.svgrepo.com, Generator: SVG Find Mixer Tools -->
<svg fill="#000000" width="800px" height="800px" version="1.1" viewBox="144 144 512 512" xmlns="http://www.w3.org/2000/svg">
 <g>
  <path d="m400 508.87c-28.875 0-56.57-11.469-76.988-31.887-20.414-20.418-31.887-48.109-31.887-76.984s11.473-56.57 31.887-76.988c20.418-20.414 48.113-31.887 76.988-31.887s56.566 11.473 76.984 31.887c20.418 20.418 31.887 48.113 31.887 76.988-0.027344 28.867-11.504 56.543-31.918 76.953-20.41 20.414-48.086 31.891-76.953 31.918zm0-188.43c-21.102 0-41.336 8.3828-56.254 23.301-14.918 14.918-23.301 35.152-23.301 56.254 0 21.098 8.3828 41.332 23.301 56.25 14.918 14.918 35.152 23.301 56.254 23.301 21.098 0 41.332-8.3828 56.25-23.301s23.301-35.152 23.301-56.25c-0.015625-21.098-8.3984-41.32-23.316-56.238-14.914-14.914-35.141-23.301-56.234-23.316z"/>
  <path d="m401.86 279.44c-3.8906 0-7.6172-1.5469-10.367-4.293-2.75-2.75-4.293-6.4805-4.293-10.367v-67.109c0-5.2383 2.793-10.078 7.3281-12.695 4.5352-2.6211 10.125-2.6211 14.66 0 4.5391 2.6172 7.332 7.457 7.332 12.695v67.109c0 3.8867-1.543 7.6172-4.293 10.367-2.75 2.7461-6.4805 4.293-10.367 4.293z"/>
  <path d="m305.54 316.21c-3.8789 0.007812-7.5977-1.5312-10.328-4.2812l-47.461-47.461c-3.2656-3.7734-4.3867-8.9492-2.9727-13.738 1.4102-4.7852 5.1602-8.5273 9.9492-9.9258 4.793-1.3984 9.9648-0.26562 13.73 3.0078l47.461 47.461c2.8242 2.7383 4.4336 6.4961 4.457 10.434 0.027344 3.9375-1.5312 7.7148-4.3203 10.492-2.793 2.7734-6.582 4.3125-10.516 4.2656z"/>
  <path d="m263.46 410.33h-67.105c-4.0312 0.23438-7.9805-1.1992-10.918-3.9727-2.9375-2.7695-4.6016-6.6289-4.6016-10.664 0-4.0391 1.6641-7.8984 4.6016-10.668 2.9375-2.7695 6.8867-4.2031 10.918-3.9688h67.105c4.0312-0.23438 7.9805 1.1992 10.918 3.9688 2.9375 2.7695 4.6016 6.6289 4.6016 10.668 0 4.0352-1.6641 7.8945-4.6016 10.664-2.9375 2.7734-6.8867 4.207-10.918 3.9727z"/>
  <path d="m252.79 554.11c-3.9336 0.046875-7.7266-1.4883-10.516-4.2617-2.793-2.7773-4.3477-6.5586-4.3242-10.492 0.027344-3.9375 1.6328-7.6992 4.4609-10.438l47.457-47.457h0.003907c2.7305-2.8125 6.4766-4.4141 10.398-4.4453s7.6914 1.5117 10.469 4.2812 4.3281 6.5391 4.3086 10.457c-0.023438 3.9219-1.6133 7.6719-4.4219 10.414l-47.457 47.457c-2.7148 2.832-6.457 4.4492-10.379 4.4844z"/>
  <path d="m394.36 615.88c-3.8633-0.042968-7.5508-1.6055-10.27-4.3477-2.7148-2.7461-4.2383-6.4531-4.2383-10.316v-67.105c0-5.2383 2.793-10.078 7.3281-12.699 4.5352-2.6172 10.125-2.6172 14.66 0 4.5391 2.6211 7.332 7.4609 7.332 12.699v67.105c0 3.9141-1.5664 7.668-4.3477 10.422s-6.5508 4.2812-10.465 4.2422z"/>
  <path d="m538.14 559.45c-3.8828-0.039063-7.5977-1.5742-10.379-4.2812l-47.457-47.457h-0.003906c-3.707-3.7109-5.1562-9.1133-3.7969-14.18 1.3555-5.0664 5.3125-9.0195 10.379-10.379 5.0625-1.3555 10.469 0.09375 14.176 3.8008l47.457 47.457h0.003907c2.8242 2.7383 4.4336 6.5 4.457 10.434 0.027343 3.9375-1.5312 7.7188-4.3203 10.492-2.793 2.7773-6.582 4.3125-10.516 4.2656z"/>
  <path d="m599.91 417.88h-67.109c-5.2344 0-10.074-2.793-12.695-7.3281-2.6172-4.5391-2.6172-10.125 0-14.664 2.6211-4.5352 7.4609-7.3281 12.695-7.3281h67.109c5.2383 0 10.078 2.793 12.695 7.3281 2.6211 4.5391 2.6211 10.125 0 14.664-2.6172 4.5352-7.457 7.3281-12.695 7.3281z"/>
  <path d="m496.02 321.55c-3.9336 0.046874-7.7227-1.4883-10.516-4.2617-2.7891-2.7773-4.3477-6.5586-4.3203-10.492 0.023438-3.9375 1.6328-7.6992 4.457-10.438l47.461-47.508c3.7227-3.6172 9.082-4.9961 14.09-3.625 5.0078 1.3711 8.9141 5.2891 10.273 10.301 1.3633 5.0117-0.03125 10.367-3.6562 14.082l-47.457 47.457h-0.003907c-2.707 2.8125-6.4258 4.4258-10.328 4.4844z"/>
 </g>
</svg>