<?xml version="1.0" encoding="UTF-8"?>
<!-- Uploaded to: SVG Find, www.svgrepo.com, Generator: SVG Find Mixer Tools -->
<svg fill="#000000" width="800px" height="800px" version="1.1" viewBox="144 144 512 512" xmlns="http://www.w3.org/2000/svg">
 <path d="m297.37 278.83c4.8945 5.0742 4.8945 13.113 0 18.188-2.4141 2.668-5.8477 4.1875-9.4453 4.1875-3.5977 0-7.0312-1.5195-9.4453-4.1875l-26.602-26.602c-4.8945-5.0742-4.8945-13.113 0-18.188 5.3477-4.8867 13.543-4.8867 18.891 0zm128.17 25.895h0.003907c-25.281-6.8984-52.266-3.457-75.004 9.5664-22.734 13.023-39.359 34.559-46.195 59.852-6.8398 25.297-3.3359 52.273 9.7422 74.98 13.078 22.707 34.648 39.277 59.961 46.055 25.312 6.7812 52.277 3.2109 74.953-9.9219 22.676-13.129 39.195-34.742 45.918-60.07 6.6055-25.168 3.0312-51.926-9.9531-74.473-12.988-22.551-34.336-39.07-59.422-45.988zm6.2969-25.895h0.003906c43.199 11.512 76.973 45.191 88.605 88.359 11.629 43.168-0.65234 89.258-32.219 120.91-31.566 31.656-77.625 44.066-120.82 32.555-43.199-11.512-76.977-45.191-88.605-88.359-11.633-43.164 0.65234-89.258 32.219-120.91s77.625-44.066 120.82-32.555zm37.84 121.17c0 7.1484-5.7969 12.945-12.949 12.945-7.1484 0-12.945-5.7969-12.945-12.945-0.09375-11.613-4.7969-22.711-13.074-30.855-8.2773-8.1445-19.449-12.668-31.062-12.574-7.2461-0.23437-13.062-6.0547-13.301-13.301 0-7.3438 5.957-13.301 13.301-13.301 18.559 0.054688 36.34 7.4492 49.461 20.57 13.121 13.121 20.516 30.902 20.57 49.461zm-56.73-158.3c0 7.3438-5.9531 13.301-13.301 13.301-7.2461-0.23828-13.062-6.0547-13.301-13.301v-37.836c0.30078-7.1055 6.1914-12.684 13.301-12.598 3.4492-0.14844 6.8125 1.1055 9.3203 3.4805 2.5078 2.375 3.9453 5.6641 3.9805 9.1172zm107.97 55.316c-5.1172 4.3945-12.754 4.1055-17.523-0.66406s-5.0586-12.406-0.66406-17.523l26.602-26.602c5.1133-4.3945 12.754-4.1055 17.523 0.66406 4.7656 4.7695 5.0586 12.406 0.66406 17.523zm37.129 116.28v0.003906c-7.2852-0.18359-13.164-6.0195-13.402-13.301 0-7.3477 5.957-13.301 13.301-13.301h37.836c3.5273 0 6.9141 1.3984 9.4062 3.8945 2.4961 2.4961 3.8945 5.8789 3.8945 9.4062-0.23438 7.2461-6.0547 13.062-13.301 13.301zm-55.418 107.87c-2.668-2.4141-4.1875-5.8477-4.1875-9.4453s1.5195-7.0312 4.1875-9.4453c5.0742-4.8945 13.113-4.8945 18.188 0l26.602 26.602v-0.003906c4.8867 5.3516 4.8867 13.547 0 18.895-5.0742 4.8945-13.113 4.8945-18.188 0zm-116.28 37.133c0-7.3477 5.957-13.301 13.301-13.301 3.5625-0.11328 7.0117 1.25 9.5312 3.7695s3.8828 5.9688 3.7695 9.5312v37.129c0.11328 3.5625-1.25 7.0117-3.7695 9.5312s-5.9688 3.8828-9.5312 3.7695c-7.3438 0-13.301-5.9531-13.301-13.301zm-107.86-56.023c5.2148-5.2188 13.676-5.2188 18.891 0 5.2188 5.2148 5.2188 13.676 0 18.891l-26.602 26.602c-5.2148 5.2188-13.676 5.2188-18.891 0-5.2188-5.2188-5.2188-13.676 0-18.895zm-37.133-115.57c3.5625-0.11328 7.0117 1.25 9.5312 3.7695 2.5195 2.5195 3.8828 5.9688 3.7695 9.5312 0 7.3438-5.9531 13.301-13.301 13.301h-37.129c-7.3477 0-13.301-5.957-13.301-13.301-0.11328-3.5625 1.25-7.0117 3.7695-9.5312s5.9688-3.8828 9.5312-3.7695z"/>
</svg>