<?xml version="1.0" encoding="UTF-8"?>
<!-- Uploaded to: SVG Find, www.svgrepo.com, Generator: SVG Find Mixer Tools -->
<svg fill="#000000" width="800px" height="800px" version="1.1" viewBox="144 144 512 512" xmlns="http://www.w3.org/2000/svg">
 <path d="m334.5 493.91c1.8906-6.957 9.0625-11.062 16.02-9.1719 6.957 1.8945 11.062 9.0664 9.1719 16.023l-12.445 47.055c-2.1094 6.7227-9.0664 10.664-15.922 9.0195-6.8359-1.957-11.082-8.7734-9.8242-15.77zm146.11-159.91c0.54297 3.4141-0.33203 6.9023-2.4258 9.6523s-5.2227 4.5234-8.6602 4.9062c-7.0508 0.84375-13.492-4.0625-14.559-11.082-1.4102-10.672-6.5703-20.496-14.562-27.711-8.3125-7.0742-18.855-11-29.773-11.082-7.2617 0-13.148-5.8867-13.148-13.152 0-7.2617 5.8867-13.148 13.148-13.148 17.145 0.050782 33.66 6.457 46.352 17.988 13.184 10.969 21.645 26.59 23.629 43.629zm-134.87-96.227c-1.9805-2.2148-4.3125-4.0859-6.9023-5.543-6.7383-4.707-14.238-8.2148-22.168-10.379-18.824-5.1328-38.914-2.5312-55.812 7.2227-16.898 9.7539-29.199 25.855-34.168 44.719-3.4648 12.461-3.4648 25.629 0 38.09 1.6328 6.5625 4.1953 12.855 7.6094 18.691 3.3008-5.1406 7.0078-10.008 11.082-14.562 14.477-14.148 33.207-23.145 53.305-25.59 9.5664-19.766 24.117-36.695 42.219-49.125 1.7969-0.97656 3.4844-2.1445 5.0391-3.4766zm-123.18 119.75c-9.957-11.043-17.078-24.34-20.758-38.742-4.8438-16.961-4.8438-34.934 0-51.895 6.7305-25.367 23.293-47.012 46.023-60.137 22.73-13.121 49.754-16.648 75.09-9.7891 10.824 2.7773 21.059 7.4727 30.23 13.852 6.4609 4.457 12.484 9.5156 17.984 15.117 41.773-13.555 87.594-4.375 120.91 24.23 19.816 17.043 33.438 40.16 38.746 65.75 26.066 2.1016 49.195 17.535 61.145 40.797 11.949 23.262 11.02 51.051-2.4531 73.465-13.477 22.414-37.582 36.27-63.73 36.629h-217.39c-23.316 0.10156-45.719-9.0703-62.27-25.492-16.801-16.656-26.266-39.324-26.301-62.977 0.24219-6.9961 1.1719-13.945 2.7734-20.758zm85.648 83.734h218.2c17.801 0 34.25-9.5 43.148-24.914 8.9023-15.418 8.9023-34.41 0-49.828-8.8984-15.414-25.348-24.914-43.148-24.914h-5.0391c-7.0469 0.46875-13.188-4.7539-13.855-11.789-3.1992-23.418-14.758-44.891-32.547-60.457-17.746-15.73-40.672-24.359-64.387-24.23-19.582-0.10938-38.703 5.9336-54.664 17.277-16.5 11.031-29.242 26.832-36.523 45.293-1.9023 5.1836-6.9336 8.543-12.445 8.3125-16.203 0.25-31.652 6.8945-42.977 18.492-11.535 11.723-18 27.512-18 43.957 0 16.445 6.4648 32.234 18 43.957 11.629 11.961 27.605 18.703 44.285 18.691zm179.45 52.648c2.0234-6.8438 8.9141-11.031 15.922-9.6758 3.3203 0.89453 6.1445 3.082 7.8398 6.0742 1.6953 2.9922 2.1172 6.5391 1.1797 9.8477l-12.445 47.762c-2.1094 6.7227-9.0664 10.664-15.922 9.0156-3.3164-0.88281-6.1445-3.0586-7.8477-6.0391s-2.1445-6.5234-1.2188-9.8281zm-51.238 0h0.003906c0.63281-3.5938 2.7266-6.7617 5.7812-8.7578 3.0586-1.9922 6.8008-2.6328 10.344-1.7695 3.5469 0.86719 6.5742 3.1602 8.3672 6.3359 1.793 3.1797 2.1914 6.957 1.0977 10.438l-26.297 96.883c-0.81641 3.3672-2.9922 6.2461-6.0078 7.957-3.0156 1.707-6.6055 2.0898-9.9141 1.0586-3.3203-0.89063-6.1445-3.0781-7.8398-6.0703-1.6914-2.9922-2.1172-6.5391-1.1758-9.8477zm-51.238 0h0.003906c0.89453-3.3242 3.082-6.1445 6.0742-7.8398 2.9922-1.6953 6.5391-2.1211 9.8438-1.1797 6.9688 1.832 11.258 8.8281 9.7266 15.871l-26.301 96.227c-0.81641 3.3672-2.9922 6.2461-6.0078 7.957-3.0156 1.707-6.6016 2.0898-9.9141 1.0625-6.6836-2.1523-10.574-9.0977-8.9141-15.922z"/>
</svg>