<?xml version="1.0" encoding="UTF-8"?>
<!-- Uploaded to: SVG Find, www.svgrepo.com, Generator: SVG Find Mixer Tools -->
<svg fill="#000000" width="800px" height="800px" version="1.1" viewBox="144 144 512 512" xmlns="http://www.w3.org/2000/svg">
 <g>
  <path d="m351.63 291.48c-3.8867 0-7.6172-1.543-10.367-4.293s-4.293-6.4766-4.293-10.367v-51.641c0-5.2383 2.793-10.078 7.3281-12.695 4.5391-2.6211 10.125-2.6211 14.664 0 4.5352 2.6172 7.3281 7.457 7.3281 12.695v51.641c0 3.8906-1.543 7.6172-4.293 10.367s-6.4805 4.293-10.367 4.293z"/>
  <path d="m277.52 319.74c-3.8906 0.003906-7.625-1.5352-10.379-4.2812l-36.477-36.375c-3.3906-3.7578-4.6055-8.9961-3.2109-13.859 1.3906-4.8672 5.1953-8.668 10.059-10.062 4.8633-1.3906 10.102-0.17578 13.859 3.2148l36.527 36.527v-0.003906c2.8242 2.7383 4.4336 6.5 4.457 10.438 0.027344 3.9336-1.5312 7.7148-4.3203 10.492-2.793 2.7734-6.582 4.3086-10.516 4.2617z"/>
  <path d="m245.13 392.19h-51.691c-5.2383 0-10.078-2.7969-12.699-7.332-2.6172-4.5352-2.6172-10.125 0-14.66 2.6211-4.5391 7.4609-7.332 12.699-7.332h51.691c5.2383 0 10.078 2.793 12.695 7.332 2.6172 4.5352 2.6172 10.125 0 14.66-2.6172 4.5352-7.457 7.332-12.695 7.332z"/>
  <path d="m424.03 323.82c-3.9023-0.027344-7.625-1.625-10.328-4.4336-2.7539-2.7422-4.3008-6.4688-4.3008-10.355 0-3.8867 1.5469-7.6094 4.3008-10.352l36.676-36.375c3.707-3.7109 9.1133-5.1562 14.18-3.8008 5.0625 1.3594 9.0195 5.3125 10.375 10.379 1.3594 5.0664-0.089844 10.469-3.7969 14.176l-36.727 36.328c-2.7227 2.8125-6.4648 4.4102-10.379 4.4336z"/>
  <path d="m553.66 454.51h-4.2812c-6.5977-26.035-21.125-49.379-41.566-66.797-20.445-17.418-45.797-28.055-72.547-30.438-2.7188-0.25-5.3906-0.35156-8.0625-0.40234v-0.003906c-7.6055-24.871-26.746-44.543-51.402-52.828-24.652-8.2852-51.789-4.168-72.875 11.059-21.086 15.227-33.527 39.691-33.414 65.703 0.015625 14.906 4.2031 29.516 12.09 42.168-27.281 5.9961-49.816 25.129-60.16 51.078s-7.1523 55.336 8.5234 78.461c15.676 23.121 41.793 36.969 69.727 36.969h253.97c23.672-0.64453 45.273-13.648 56.926-34.262 11.652-20.617 11.652-45.828 0-66.445-11.652-20.613-33.254-33.617-56.926-34.262zm-203.49-125.05c9.875 0.015625 19.535 2.875 27.824 8.2344 8.293 5.3594 14.863 12.996 18.93 21.996-34.137 7.4414-63.801 28.398-82.223 58.086-9.9297-9.4648-15.645-22.52-15.871-36.238-0.22656-13.715 5.0586-26.949 14.672-36.738 9.6133-9.7891 22.746-15.316 36.465-15.34zm203.49 230.7h-253.97c-16.035 0.0625-31.297-6.8789-41.789-19.008-10.488-12.125-15.16-28.23-12.789-44.09 2.3711-15.855 11.551-29.887 25.129-38.414 13.578-8.5312 30.203-10.703 45.52-5.9531l12.344 3.7266 5.2891-11.738v0.003906c12.039-26.559 35.098-46.512 63.105-54.617 28.008-8.1016 58.16-3.5391 82.516 12.492 24.355 16.027 40.473 41.914 44.113 70.84l2.168 17.531 16.828-5.2891c3.7266-1.1875 7.6211-1.7852 11.535-1.7617 10.363-0.375 20.434 3.4766 27.895 10.676 7.4648 7.1953 11.68 17.117 11.68 27.488 0 10.367-4.2148 20.293-11.68 27.488-7.4609 7.1992-17.531 11.051-27.895 10.676z"/>
 </g>
</svg>