<?xml version="1.0" encoding="UTF-8"?>
<!-- Uploaded to: SVG Find, www.svgrepo.com, Generator: SVG Find Mixer Tools -->
<svg fill="#000000" width="800px" height="800px" version="1.1" viewBox="144 144 512 512" xmlns="http://www.w3.org/2000/svg">
 <g>
  <path d="m549.02 513.61h-34.004c-5.2383 0-10.078-2.7969-12.699-7.332-2.6172-4.5352-2.6172-10.125 0-14.66 2.6211-4.5352 7.4609-7.332 12.699-7.332h34.008-0.003906c12.766 0.11719 24.938-5.3711 33.297-15.02 8.3633-9.6445 12.066-22.473 10.137-35.09-1.9297-12.621-9.3047-23.754-20.164-30.457-10.863-6.707-24.121-8.3047-36.266-4.375l-16.777 5.2891-2.168-17.48c-4.0508-32.266-22.023-61.141-49.188-79.023-27.164-17.879-60.793-22.969-92.031-13.934-31.238 9.0352-56.957 31.293-70.379 60.914l-5.3398 11.738-12.293-3.7773c-5.8867-1.7656-11.996-2.668-18.137-2.6719-16.734-0.47656-32.953 5.8359-44.957 17.504-12.008 11.668-18.781 27.699-18.781 44.441 0 16.738 6.7734 32.77 18.781 44.438 12.004 11.668 28.223 17.98 44.957 17.504h91.289c5.2383 0 10.078 2.7969 12.695 7.332 2.6211 4.5352 2.6211 10.125 0 14.66-2.6172 4.5352-7.457 7.332-12.695 7.332h-91.543c-24.578 0.57422-48.348-8.7852-65.934-25.961-17.586-17.18-27.5-40.723-27.5-65.305 0-24.586 9.9141-48.129 27.5-65.309 17.586-17.176 41.355-26.535 65.934-25.957 4.8594-0.019531 9.7148 0.36719 14.512 1.1562 18.535-33.062 49.641-57.23 86.258-67.027 36.617-9.793 75.637-4.3789 108.2 15.016 32.566 19.395 55.914 51.125 64.746 87.984h5.8438c25.562 0.67188 48.902 14.699 61.492 36.957 12.594 22.254 12.594 49.484 0 71.742-12.59 22.254-35.93 36.281-61.492 36.953z"/>
  <path d="m401.96 506.2-32.395 105.39"/>
  <path d="m369.77 621.68c-1.0078-0.007812-2.0078-0.16016-2.9727-0.45312-5.3125-1.6445-8.2891-7.2812-6.6484-12.598l32.344-105.4v0.003907c1.6406-5.3281 7.293-8.3203 12.621-6.6758 5.3281 1.6406 8.3164 7.2891 6.6758 12.621l-32.598 105.39c-1.2812 4.1523-5.0781 7.0156-9.4219 7.1055z"/>
  <path d="m424.08 434.05-13.152 42.824"/>
  <path d="m410.93 486.96c-0.98828-0.007812-1.9727-0.16016-2.9219-0.45312-2.5586-0.78125-4.7031-2.5469-5.9609-4.9102s-1.5234-5.1289-0.73828-7.6875l13.148-42.824c1.6289-5.3281 7.2695-8.3281 12.598-6.6992 5.3281 1.6289 8.3281 7.2656 6.6992 12.594l-13.148 42.875c-1.3086 4.2383-5.2383 7.125-9.6758 7.1055z"/>
  <path d="m460.86 434.05-12.094 39.297-30.883 100.61"/>
  <path d="m417.88 584.09c-3.1367-0.023438-6.0859-1.5117-7.9727-4.0195-1.8867-2.5078-2.4961-5.7539-1.6484-8.7773l42.977-139.96h-0.003906c1.8359-4.9648 7.1992-7.668 12.281-6.1797 5.082 1.4844 8.1484 6.6484 7.0156 11.82l-43.023 139.96c-1.2852 4.2422-5.1914 7.1445-9.625 7.1523z"/>
  <path d="m458.09 562.63-15.012 48.969"/>
  <path d="m443.07 621.68c-3.1992-0.003906-6.207-1.5234-8.1055-4.0977s-2.4609-5.8945-1.5156-8.9531l15.113-48.918c0.67578-2.6758 2.4219-4.9531 4.8242-6.3086 2.4023-1.3516 5.2578-1.6602 7.8945-0.85156 2.6367 0.80469 4.8281 2.6602 6.0625 5.1289 1.2305 2.4648 1.3984 5.332 0.46484 7.9258l-15.113 48.969h-0.003907c-1.3008 4.2227-5.2031 7.1016-9.6211 7.1055z"/>
  <path d="m497.59 434.05-12.191 39.703-19.75 64.234"/>
  <path d="m465.49 548.12c-1.0078 0-2.0078-0.15234-2.9727-0.45313-2.5586-0.77734-4.7031-2.543-5.9609-4.9062-1.2578-2.3633-1.5234-5.1289-0.73828-7.6875l31.941-103.98v-0.003907c1.6289-5.3281 7.2656-8.3281 12.594-6.6992 5.332 1.6289 8.332 7.2656 6.7031 12.594l-31.488 104.09c-1.3672 4.3633-5.5078 7.2617-10.078 7.0508z"/>
 </g>
</svg>