<?xml version="1.0" encoding="UTF-8"?>
<!-- Uploaded to: SVG Find, www.svgrepo.com, Generator: SVG Find Mixer Tools -->
<svg fill="#000000" width="800px" height="800px" version="1.1" viewBox="144 144 512 512" xmlns="http://www.w3.org/2000/svg">
 <path d="m203.51 257.17c12.98-3.0703 24.855-9.6875 34.305-19.105 9.4453-9.418 16.09-21.273 19.199-34.246 1.2695-6.0703 6.6211-10.422 12.824-10.422 6.1992 0 11.551 4.3516 12.82 10.422 3.0977 12.953 9.7227 24.793 19.141 34.211 9.418 9.418 21.262 16.043 34.215 19.141 13.855 2.7695 13.148 22.168 0 25.645-13.004 2.9883-24.906 9.5781-34.34 19.016-9.4375 9.4336-16.023 21.332-19.016 34.336-1.4453 5.9102-6.7383 10.066-12.82 10.066-6.082 0-11.379-4.1562-12.824-10.066-2.8867-13.074-9.4609-25.047-18.945-34.504-9.4805-9.4531-21.473-15.996-34.559-18.848-5.9844-1.3633-10.23-6.6836-10.23-12.82 0-6.1406 4.2461-11.461 10.23-12.824zm305.56-6.2461h0.003907c-13.559-10.387-28.477-18.859-44.336-25.191 6.1133 37.91 1.5625 76.777-13.148 112.25-14.262 33.973-37.168 63.621-66.441 85.992-29.273 22.371-63.895 36.684-100.42 41.52-19.566 2.5391-39.395 2.3008-58.895-0.70313l0.70703 2.0664h-0.003906c3.2773 7.3594 6.9805 14.527 11.086 21.461 11.898 21.086 27.898 39.578 47.055 54.383 19.156 14.805 41.082 25.621 64.488 31.82 41.086 10.945 84.695 7.3359 123.42-10.219 38.727-17.551 70.188-47.965 89.039-86.078 18.852-38.113 23.93-81.574 14.379-123-9.5508-41.434-33.145-78.285-66.781-104.3zm15.113-20.809h0.003906c33.039 25.234 57.844 59.707 71.273 99.051 13.43 39.344 14.879 81.789 4.1602 121.96-10.715 40.168-33.113 76.254-64.355 103.68-31.242 27.43-69.922 44.965-111.14 50.387-41.215 5.4258-83.117-1.5078-120.39-19.918-37.273-18.41-68.242-47.473-88.988-83.5-4.5-8.1172-8.4375-16.535-11.789-25.191-3.7266-8.2773-6.7422-16.855-9.0156-25.645-1.2695-4.4844 0.007813-9.3086 3.3359-12.57 3.3281-3.2656 8.1719-4.4531 12.633-3.0977 23.266 6.1758 47.488 7.8828 71.391 5.0391 32.047-4.2852 62.41-16.91 88.047-36.605 25.641-19.699 45.66-45.785 58.059-75.645 15.793-37.332 18.562-78.895 7.8594-117.99-1.1367-4.4766 0.16797-9.2227 3.4336-12.488s8.0117-4.5703 12.488-3.4336c26.574 7.1641 51.52 19.395 73.453 36.023zm-44.336 297.95h0.003906c-2.918 1.9336-6.5039 2.582-9.918 1.793-3.4102-0.79297-6.3477-2.9531-8.1172-5.9727-3.5742-6.2617-1.5977-14.223 4.4844-18.09 9.6055-5.7852 18.258-13.023 25.645-21.461 2.3555-2.7031 5.7109-4.3398 9.293-4.5273s7.0898 1.0859 9.7188 3.5312c2.625 2.4414 4.1523 5.8477 4.2227 9.4336 0.074218 3.5898-1.3125 7.0508-3.8398 9.5977-9.2539 9.8516-19.734 18.469-31.184 25.645zm63.332-78.945c-2.6992 6.4883-9.9453 9.8047-16.625 7.6055-6.6172-2.4531-10.012-9.7891-7.6055-16.422 11.727-32.633 9.7266-68.625-5.543-99.754-1.7266-3.0859-2.0312-6.7695-0.83203-10.094s3.7812-5.9648 7.0781-7.2383c3.0312-1.5703 6.5664-1.8672 9.8164-0.82812 3.25 1.043 5.957 3.332 7.5156 6.3711 17.949 37.777 20.195 81.129 6.2461 120.56zm-303.49-179.46c12.23 7.6172 22.445 18.07 29.773 30.48 7.7852-12.289 18.195-22.699 30.48-30.48-12.102-7.7188-22.48-17.855-30.48-29.777-7.5469 12.047-17.727 22.227-29.773 29.777z"/>
</svg>