<?xml version="1.0" encoding="UTF-8"?>
<!-- Uploaded to: SVG Find, www.svgrepo.com, Generator: SVG Find Mixer Tools -->
<svg fill="#000000" width="800px" height="800px" version="1.1" viewBox="144 144 512 512" xmlns="http://www.w3.org/2000/svg">
 <g>
  <path d="m549.02 513.61h-34.004c-5.2383 0-10.078-2.7969-12.699-7.332-2.6172-4.5352-2.6172-10.125 0-14.66 2.6211-4.5352 7.4609-7.332 12.699-7.332h34.008-0.003906c12.766 0.11719 24.938-5.3711 33.297-15.02 8.3633-9.6445 12.066-22.473 10.137-35.09-1.9297-12.621-9.3047-23.754-20.164-30.457-10.863-6.707-24.121-8.3047-36.266-4.375l-16.777 5.2891-2.168-17.48c-4.0508-32.266-22.023-61.141-49.188-79.023-27.164-17.879-60.793-22.969-92.031-13.934-31.238 9.0352-56.957 31.293-70.379 60.914l-5.3398 11.738-12.293-3.7773c-5.8867-1.7656-11.996-2.668-18.137-2.6719-16.734-0.47656-32.953 5.8359-44.957 17.504-12.008 11.668-18.781 27.699-18.781 44.441 0 16.738 6.7734 32.77 18.781 44.438 12.004 11.668 28.223 17.98 44.957 17.504h91.289c5.2383 0 10.078 2.7969 12.695 7.332 2.6211 4.5352 2.6211 10.125 0 14.66-2.6172 4.5352-7.457 7.332-12.695 7.332h-91.543c-24.578 0.57422-48.348-8.7852-65.934-25.961-17.586-17.18-27.5-40.723-27.5-65.305 0-24.586 9.9141-48.129 27.5-65.309 17.586-17.176 41.355-26.535 65.934-25.957 4.8594-0.019531 9.7148 0.36719 14.512 1.1562 18.535-33.062 49.641-57.23 86.258-67.027 36.617-9.793 75.637-4.3789 108.2 15.016 32.566 19.395 55.914 51.125 64.746 87.984h5.8438c25.562 0.67188 48.902 14.699 61.492 36.957 12.594 22.254 12.594 49.484 0 71.742-12.59 22.254-35.93 36.281-61.492 36.953z"/>
  <path d="m434.41 422.97 28.664 0.050782-20.707 65.848h29.223l-43.629 111.09 9.8242-83.785h-32.344z"/>
  <path d="m434.41 422.97h28.668l-20.711 65.898h29.223l-43.629 110.84 10.078-83.785h-32.598l28.969-93.203m37.18 65.898m-37.18-75.727c-4.4609 0.023438-8.375 2.9766-9.625 7.2578l-28.969 93.203c-0.94141 3.0547-0.37891 6.3789 1.5195 8.9531 1.8984 2.5742 4.9062 4.0938 8.1055 4.0977h21.008l-8.5156 72.547c-0.58203 5.0234 2.6523 9.7031 7.5586 10.934 0.80859 0.19922 1.6367 0.30078 2.4688 0.30078 4.1406-0.003906 7.8594-2.543 9.3711-6.3984l43.43-110.84-0.003907 0.003906c0.61328-1.293 0.92578-2.7031 0.91016-4.1328 0-2.6719-1.0625-5.2344-2.9531-7.125-1.8906-1.8906-4.4531-2.9531-7.125-2.9531h-15.516l16.574-52.75v0.003906c0.96484-3.0508 0.42187-6.3828-1.4609-8.9688-1.8945-2.5898-4.9062-4.125-8.1133-4.1328z"/>
 </g>
</svg>