<?xml version="1.0" encoding="UTF-8"?>
<!-- Uploaded to: SVG Find, www.svgrepo.com, Generator: SVG Find Mixer Tools -->
<svg fill="#000000" width="800px" height="800px" version="1.1" viewBox="144 144 512 512" xmlns="http://www.w3.org/2000/svg">
 <path d="m400.35 554.67c-3.5195 0.11328-6.9336-1.2344-9.4219-3.7266-2.4922-2.4922-3.8398-5.9023-3.7266-9.4219 0.035156-3.4141 1.457-6.6641 3.9375-9.0117 2.4766-2.3438 5.8008-3.582 9.2109-3.4336 17.16-0.12109 33.574-7.0391 45.645-19.238 12.07-12.203 18.809-28.691 18.742-45.855 0-7.2617 5.8867-13.148 13.148-13.148 3.5234-0.11328 6.9336 1.2383 9.4219 3.7266 2.4922 2.4922 3.8398 5.9023 3.7266 9.4219 0 24.055-9.5508 47.121-26.559 64.125-17.008 17.008-40.074 26.562-64.125 26.562zm0 51.891c-37.832 0.054687-74.129-14.949-100.88-41.699s-41.754-63.047-41.699-100.88c0-85.648 80.309-195.18 123.89-254.73l8.2617-10.375c2.3516-3.418 6.2305-5.4609 10.379-5.4609 4.1484 0 8.0273 2.043 10.379 5.4609l7.6094 10.379c44.332 59.75 123.93 168.88 123.93 254.72 0.09375 37.723-14.801 73.934-41.406 100.68-26.605 26.738-62.746 41.812-100.46 41.902zm0-26.301v0.003907c30.871 0.10547 60.512-12.109 82.34-33.938 21.832-21.832 34.047-51.469 33.938-82.344 0-76.125-74.059-177.89-116.28-236.04-42.926 58.141-116.98 159.91-116.98 236.04 0.10547 30.93 12.488 60.551 34.426 82.355 21.934 21.805 51.629 34.008 82.559 33.926z"/>
</svg>