<?xml version="1.0" encoding="UTF-8"?>
<!-- Uploaded to: SVG Find, www.svgrepo.com, Generator: SVG Find Mixer Tools -->
<svg fill="#000000" width="800px" height="800px" version="1.1" viewBox="144 144 512 512" xmlns="http://www.w3.org/2000/svg">
 <g>
  <path d="m440.3 602.58c-12.48-0.003906-24.469-4.8438-33.445-13.512-8.9805-8.6641-14.242-20.473-14.688-32.941-0.44141-12.473 3.9727-24.625 12.309-33.906v-90.688c0-12.797 6.8281-24.621 17.914-31.02 11.082-6.3984 24.734-6.3984 35.82 0 11.082 6.3984 17.91 18.223 17.91 31.02v90.688c8.3398 9.2812 12.75 21.434 12.309 33.906-0.44141 12.469-5.707 24.277-14.688 32.941-8.9766 8.668-20.965 13.508-33.441 13.512zm0-186.41c-4.1484 0-8.125 1.6445-11.062 4.5703-2.9375 2.9258-4.5938 6.8984-4.6055 11.047v94.566c0.015625 2.8281-1.1523 5.5312-3.2266 7.4531-5.5938 5.1094-8.8789 12.27-9.1055 19.84-0.23047 7.5703 2.6211 14.914 7.8945 20.352 5.2773 5.4336 12.527 8.5039 20.105 8.5039 7.5742 0 14.828-3.0703 20.102-8.5039 5.2773-5.4375 8.125-12.781 7.8945-20.352-0.22656-7.5703-3.5117-14.73-9.1055-19.84-2.0742-1.9219-3.2422-4.625-3.2227-7.4531v-94.77c-0.015625-4.1445-1.6719-8.1172-4.6094-11.047-2.9336-2.9258-6.9141-4.5703-11.059-4.5703z"/>
  <path d="m448.77 535.42v-17.379c0-4.6758-3.7891-8.4648-8.4609-8.4648-4.6758 0-8.4648 3.7891-8.4648 8.4648v17.383-0.003906c-5.8516 2.6055-10.176 7.7617-11.727 13.977-1.5469 6.2148-0.14844 12.797 3.793 17.844 3.9453 5.0469 9.9922 7.9961 16.398 7.9961 6.4023 0 12.453-2.9492 16.395-7.9961 3.9453-5.0469 5.3438-11.629 3.793-17.844-1.5469-6.2148-5.875-11.371-11.727-13.977z"/>
  <path d="m549.02 513.61h-34.004c-5.2383 0-10.078-2.7969-12.699-7.332-2.6172-4.5352-2.6172-10.125 0-14.66 2.6211-4.5352 7.4609-7.332 12.699-7.332h34.008-0.003906c12.766 0.11719 24.938-5.3711 33.297-15.02 8.3633-9.6445 12.066-22.473 10.137-35.09-1.9297-12.621-9.3047-23.754-20.164-30.457-10.863-6.707-24.121-8.3047-36.266-4.375l-16.777 5.2891-2.168-17.48c-4.0508-32.266-22.023-61.141-49.188-79.023-27.164-17.879-60.793-22.969-92.031-13.934-31.238 9.0352-56.957 31.293-70.379 60.914l-5.3398 11.738-12.293-3.7773c-5.8867-1.7656-11.996-2.668-18.137-2.6719-16.734-0.47656-32.953 5.8359-44.957 17.504-12.008 11.668-18.781 27.699-18.781 44.441 0 16.738 6.7734 32.77 18.781 44.438 12.004 11.668 28.223 17.98 44.957 17.504h91.289c5.2383 0 10.078 2.7969 12.695 7.332 2.6211 4.5352 2.6211 10.125 0 14.66-2.6172 4.5352-7.457 7.332-12.695 7.332h-91.543c-24.578 0.57422-48.348-8.7852-65.934-25.961-17.586-17.18-27.5-40.723-27.5-65.305 0-24.586 9.9141-48.129 27.5-65.309 17.586-17.176 41.355-26.535 65.934-25.957 4.8594-0.019531 9.7148 0.36719 14.512 1.1562 18.535-33.062 49.641-57.23 86.258-67.027 36.617-9.793 75.637-4.3789 108.2 15.016 32.566 19.395 55.914 51.125 64.746 87.984h5.8438c25.562 0.67188 48.902 14.699 61.492 36.957 12.594 22.254 12.594 49.484 0 71.742-12.59 22.254-35.93 36.281-61.492 36.953z"/>
 </g>
</svg>